<?xml version="1.0" encoding="UTF-8" standalone="no" ?>
<!DOCTYPE svg PUBLIC "-//W3C//DTD SVG 1.1//EN" "http://www.w3.org/Graphics/SVG/1.1/DTD/svg11.dtd">
<svg xmlns="http://www.w3.org/2000/svg" xmlns:xlink="http://www.w3.org/1999/xlink" version="1.1" width="400" height="420" viewBox="0 0 400 420" xml:space="preserve">
<desc>Created with Fabric.js 4.6.0</desc>
<defs>
</defs>
<g transform="matrix(3.5 -0.31 0.22 2.52 160.66 95.85)" id="ARVYVTWON0QPfaIF7zVG0" >
<path style="stroke: rgb(161,6,156); stroke-width: 0; stroke-dasharray: none; stroke-linecap: butt; stroke-dashoffset: 0; stroke-linejoin: miter; stroke-miterlimit: 4; fill: rgb(233,233,233); fill-rule: nonzero; opacity: 1;" transform=" translate(0, 0)" d="M -33.26403 -19.1513 C -33.26403 -26.945549999999997 -28.71672 -33.26403 -23.107319999999998 -33.26403 L 23.10733 -33.26403 L 23.10733 -33.26403 C 28.716730000000002 -33.26403 33.26404 -26.945539999999998 33.26404 -19.1513 L 33.26404 19.1513 L 33.26404 19.1513 C 33.26404 26.945549999999997 28.716730000000002 33.26403 23.10733 33.26403 L -23.107319999999998 33.26403 L -23.107319999999998 33.26403 C -28.71672 33.26403 -33.26403 26.945539999999998 -33.26403 19.1513 z" stroke-linecap="round" />
</g>
<g transform="matrix(2.33 -0.2 0.2 2.29 119.5 69.25)" id="n0uYG3Ik1vq1TLWShlA6n" >
<path style="stroke: rgb(172,102,204); stroke-width: 4; stroke-dasharray: none; stroke-linecap: butt; stroke-dashoffset: 0; stroke-linejoin: miter; stroke-miterlimit: 4; fill: rgb(255,255,255); fill-rule: nonzero; opacity: 1;" transform=" translate(0, 0)" d="M 0 -11.63627 C 6.42322 -11.63627 11.63627 -6.42322 11.63627 0 C 11.63627 6.42322 6.42322 11.63627 0 11.63627 C -6.42322 11.63627 -11.63627 6.42322 -11.63627 0 C -11.63627 -6.42322 -6.42322 -11.63627 0 -11.63627 z" stroke-linecap="round" />
</g>
<g transform="matrix(1 -0.09 0.09 0.98 199.2 62.28)" id="UCUkuRWXOgMYALtKmhXQo" >
<path style="stroke: rgb(172,102,204); stroke-width: 4; stroke-dasharray: none; stroke-linecap: butt; stroke-dashoffset: 0; stroke-linejoin: miter; stroke-miterlimit: 4; fill: rgb(255,255,255); fill-rule: nonzero; opacity: 1;" transform=" translate(0, 0)" d="M 0 -27 C 14.904 -27 27 -14.904 27 0 C 27 14.904 14.904 27 0 27 C -14.904 27 -27 14.904 -27 0 C -27 -14.904 -14.904 -27 0 -27 z" stroke-linecap="round" />
</g>
<g transform="matrix(1 -0.09 0.09 0.98 199.19 64.13)" id="ibahHTCNL4_m1k9_pw2nk" >
<path style="stroke: rgb(172,102,204); stroke-width: 0; stroke-dasharray: none; stroke-linecap: butt; stroke-dashoffset: 0; stroke-linejoin: miter; stroke-miterlimit: 4; fill: rgb(0,0,0); fill-rule: nonzero; opacity: 1;" transform=" translate(0, 0)" d="M 0 -8 C 4.416 -8 8 -4.416 8 0 C 8 4.416 4.416 8 0 8 C -4.416 8 -8 4.416 -8 0 C -8 -4.416 -4.416 -8 0 -8 z" stroke-linecap="round" />
</g>
<g transform="matrix(1 -0.09 0.09 0.98 119.49 71.1)" id="uCDDO5TFjk2Ax1SRicIMf" >
<path style="stroke: rgb(172,102,204); stroke-width: 0; stroke-dasharray: none; stroke-linecap: butt; stroke-dashoffset: 0; stroke-linejoin: miter; stroke-miterlimit: 4; fill: rgb(0,0,0); fill-rule: nonzero; opacity: 1;" transform=" translate(0, 0)" d="M 0 -8 C 4.416 -8 8 -4.416 8 0 C 8 4.416 4.416 8 0 8 C -4.416 8 -8 4.416 -8 0 C -8 -4.416 -4.416 -8 0 -8 z" stroke-linecap="round" />
</g>
<g transform="matrix(1 -0.09 0.13 1.49 165.21 133.51)" id="1eAQwRDXSjNImo1tSAE2e" >
<path style="stroke: rgb(172,102,204); stroke-width: 4; stroke-dasharray: none; stroke-linecap: butt; stroke-dashoffset: 0; stroke-linejoin: miter; stroke-miterlimit: 4; fill: rgb(255,255,255); fill-rule: nonzero; opacity: 1;" transform=" translate(-48, -12)" d="M 95.99916 0.52555 C 95.99916 13.483329999999999 74.49535 23.9998 47.99958 23.9998 C 21.50381 23.9998 0 13.48334 0 0.5255499999999991 C 0 0.34990999999999906 0.00395 0.1747199999999991 0.01181 -8.881784197001252e-16 L 95.98734999999999 -8.881784197001252e-16 C 95.99520999999999 0.1747199999999991 95.99915999999999 0.3499099999999991 95.99915999999999 0.5255499999999991 z" stroke-linecap="round" />
</g>
<g transform="matrix(1.35 0 0 1.62 168.66 279.96)" id="10mz65N5Oab_iEanKsGdP" >
<path style="stroke: rgb(172,102,204); stroke-width: 0; stroke-dasharray: none; stroke-linecap: butt; stroke-dashoffset: 0; stroke-linejoin: miter; stroke-miterlimit: 4; fill: rgb(233,233,233); fill-rule: nonzero; opacity: 1;" transform=" translate(0, 0)" d="M -51.56854 -21.96158 C -51.56854 -38.313050000000004 -35.66791 -51.56853 -16.053489999999996 -51.56853 L 16.053470000000004 -51.56853 L 16.053470000000004 -51.56853 C 35.66789 -51.56853 51.56852000000001 -38.31304 51.56852000000001 -21.96158 L 51.56852000000001 21.96158 L 51.56852000000001 21.96158 C 51.56852000000001 38.313050000000004 35.66789000000001 51.56853 16.053470000000004 51.56853 L -16.053489999999996 51.56853 L -16.053489999999996 51.56853 C -35.66790999999999 51.56853 -51.56854 38.31304 -51.56854 21.96158 z" stroke-linecap="round" />
</g>
<g transform="matrix(1 0 0 1 99.06 243.67)" id="4FR4tJ24orMqzsjosq4jU" >
<path style="stroke: rgb(172,102,204); stroke-width: 1; stroke-dasharray: none; stroke-linecap: butt; stroke-dashoffset: 0; stroke-linejoin: miter; stroke-miterlimit: 4; fill: rgb(255,255,255); fill-opacity: 0; fill-rule: nonzero; opacity: 1;" transform=" translate(0, 0)" d="M 0 0" stroke-linecap="round" />
</g>
<g transform="matrix(1.3 0 0 1.31 78.66 295.07)" id="vnDbAMwxITi6JTriq3m3u" >
<path style="stroke: rgb(233,233,233); stroke-width: 24; stroke-dasharray: none; stroke-linecap: butt; stroke-dashoffset: 0; stroke-linejoin: miter; stroke-miterlimit: 4; fill: rgb(255,255,255); fill-opacity: 0; fill-rule: nonzero; opacity: 1;" transform=" translate(0, 0)" d="M 29.20164 -52 C -28.77708 11.829790000000003 -29.201649999999997 52 -29.201649999999997 52" stroke-linecap="round" />
</g>
<g transform="matrix(-1.22 -0.44 0.45 -1.23 294.31 187.67)" id="xqqv7w2xZiPg4vRPLkxSz" >
<path style="stroke: rgb(233,233,233); stroke-width: 24; stroke-dasharray: none; stroke-linecap: butt; stroke-dashoffset: 0; stroke-linejoin: miter; stroke-miterlimit: 4; fill: rgb(255,255,255); fill-opacity: 0; fill-rule: nonzero; opacity: 1;" transform=" translate(0, 0)" d="M 29.20164 -52 C -28.77708 11.829790000000003 -29.201649999999997 52 -29.201649999999997 52" stroke-linecap="round" />
</g>
<g transform="matrix(0.95 0.31 -0.31 0.95 359.34 122.35)" id="oNumEWAQMBTBLBR0L_Ot5" >
<path style="stroke: rgb(233,233,233); stroke-width: 0; stroke-dasharray: none; stroke-linecap: butt; stroke-dashoffset: 0; stroke-linejoin: miter; stroke-miterlimit: 4; fill: rgb(172,102,204); fill-rule: nonzero; opacity: 1;" transform=" translate(-18, -18)" d="M 0 7.63675 C 0 3.4190899999999997 3.41909 0 7.63675 0 L 28.363239999999998 0 L 28.363239999999998 0 C 32.5809 0 35.99999 3.41909 35.99999 7.63675 L 35.99999 28.363239999999998 L 35.99999 28.363239999999998 C 35.99999 32.5809 32.5809 35.99999 28.363239999999998 35.99999 L 7.636749999999999 35.99999 L 7.636749999999999 35.99999 C 3.419089999999999 35.99999 -8.881784197001252e-16 32.5809 -8.881784197001252e-16 28.363239999999998 z" stroke-linecap="round" />
</g>
<g transform="matrix(0.63 0.78 -0.78 0.63 338.83 104.77)" id="Y6ix2kjE5si6_vYxqi68t" >
<path style="stroke: rgb(233,233,233); stroke-width: 0; stroke-dasharray: none; stroke-linecap: butt; stroke-dashoffset: 0; stroke-linejoin: miter; stroke-miterlimit: 4; fill: rgb(172,102,204); fill-rule: nonzero; opacity: 1;" transform=" translate(-12, -6)" d="M 0 0.00075 C 0 0.00033 0.00034 0 0.00075 0 L 23.99933 0 L 23.99933 0 C 23.99975 0 24.00008 0.00034 24.00008 0.00075 L 24.00008 11.99923 L 24.00008 11.99923 C 24.00008 11.99965 23.99974 11.99998 23.99933 11.99998 L 0.0007500000000000284 11.99998 L 0.0007500000000000284 11.99998 C 0.0003300000000000284 11.99998 2.8406096919120216e-17 11.999640000000001 2.8406096919120216e-17 11.99923 z" stroke-linecap="round" />
</g>
<g transform="matrix(-0.28 0.96 -0.96 -0.28 359.58 92.9)" id="97IcJSThmYZOx4POY-JHE" >
<path style="stroke: rgb(233,233,233); stroke-width: 0; stroke-dasharray: none; stroke-linecap: butt; stroke-dashoffset: 0; stroke-linejoin: miter; stroke-miterlimit: 4; fill: rgb(172,102,204); fill-rule: nonzero; opacity: 1;" transform=" translate(-12, -6)" d="M 0 0.00418 C 0 0.0018699999999999997 0.00187 0 0.00418 0 L 23.995820000000002 0 L 23.995820000000002 0 C 23.998130000000003 0 24.000000000000004 0.00187 24.000000000000004 0.00418 L 24.000000000000004 11.99582 L 24.000000000000004 11.99582 C 24.000000000000004 11.99813 23.998130000000003 12 23.995820000000002 12 L 0.004180000000001627 12 L 0.004180000000001627 12 C 0.0018700000000016269 12 1.627170620466245e-15 11.99813 1.627170620466245e-15 11.99582 z" stroke-linecap="round" />
</g>
<g transform="matrix(-0.39 0.92 -0.92 -0.39 373.68 97.98)" id="q9j1JoKwwuMnCarnshFOq" >
<path style="stroke: rgb(233,233,233); stroke-width: 0; stroke-dasharray: none; stroke-linecap: butt; stroke-dashoffset: 0; stroke-linejoin: miter; stroke-miterlimit: 4; fill: rgb(172,102,204); fill-rule: nonzero; opacity: 1;" transform=" translate(-12, -6)" d="M 0 0.00418 C 0 0.0018699999999999997 0.00187 0 0.00418 0 L 23.995820000000002 0 L 23.995820000000002 0 C 23.998130000000003 0 24.000000000000004 0.00187 24.000000000000004 0.00418 L 24.000000000000004 11.99582 L 24.000000000000004 11.99582 C 24.000000000000004 11.99813 23.998130000000003 12 23.995820000000002 12 L 0.004180000000001627 12 L 0.004180000000001627 12 C 0.0018700000000016269 12 1.627170620466245e-15 11.99813 1.627170620466245e-15 11.99582 z" stroke-linecap="round" />
</g>
<g transform="matrix(-0.74 0.67 -0.67 -0.74 381.59 112.16)" id="uWibIjWM8Feo5Lf9-bceH" >
<path style="stroke: rgb(233,233,233); stroke-width: 0; stroke-dasharray: none; stroke-linecap: butt; stroke-dashoffset: 0; stroke-linejoin: miter; stroke-miterlimit: 4; fill: rgb(172,102,204); fill-rule: nonzero; opacity: 1;" transform=" translate(-12, -6)" d="M 0 0.00418 C 0 0.0018699999999999997 0.00187 0 0.00418 0 L 23.995820000000002 0 L 23.995820000000002 0 C 23.998130000000003 0 24.000000000000004 0.00187 24.000000000000004 0.00418 L 24.000000000000004 11.99582 L 24.000000000000004 11.99582 C 24.000000000000004 11.99813 23.998130000000003 12 23.995820000000002 12 L 0.004180000000001627 12 L 0.004180000000001627 12 C 0.0018700000000016269 12 1.627170620466245e-15 11.99813 1.627170620466245e-15 11.99582 z" stroke-linecap="round" />
</g>
<g transform="matrix(-0.99 -0.1 0.1 -0.99 37.34 378.87)" id="Y5wUOn1WWr643WEqWo_TR" >
<path style="stroke: rgb(233,233,233); stroke-width: 0; stroke-dasharray: none; stroke-linecap: butt; stroke-dashoffset: 0; stroke-linejoin: miter; stroke-miterlimit: 4; fill: rgb(172,102,204); fill-rule: nonzero; opacity: 1;" transform=" translate(-18, -18)" d="M 0 7.63675 C 0 3.4190899999999997 3.41909 0 7.63675 0 L 28.363239999999998 0 L 28.363239999999998 0 C 32.5809 0 35.99999 3.41909 35.99999 7.63675 L 35.99999 28.363239999999998 L 35.99999 28.363239999999998 C 35.99999 32.5809 32.5809 35.99999 28.363239999999998 35.99999 L 7.636749999999999 35.99999 L 7.636749999999999 35.99999 C 3.419089999999999 35.99999 -8.881784197001252e-16 32.5809 -8.881784197001252e-16 28.363239999999998 z" stroke-linecap="round" />
</g>
<g transform="matrix(-0.78 -0.63 0.63 -0.78 60.74 390.35)" id="o2yoaS3j1GaIJe98p0Q0j" >
<path style="stroke: rgb(233,233,233); stroke-width: 0; stroke-dasharray: none; stroke-linecap: butt; stroke-dashoffset: 0; stroke-linejoin: miter; stroke-miterlimit: 4; fill: rgb(172,102,204); fill-rule: nonzero; opacity: 1;" transform=" translate(-12, -6)" d="M 0 0.00075 C 0 0.00033 0.00034 0 0.00075 0 L 23.99933 0 L 23.99933 0 C 23.99975 0 24.00008 0.00034 24.00008 0.00075 L 24.00008 11.99923 L 24.00008 11.99923 C 24.00008 11.99965 23.99974 11.99998 23.99933 11.99998 L 0.0007500000000000284 11.99998 L 0.0007500000000000284 11.99998 C 0.0003300000000000284 11.99998 2.8406096919120216e-17 11.999640000000001 2.8406096919120216e-17 11.99923 z" stroke-linecap="round" />
</g>
<g transform="matrix(0.07 -1 1 0.07 42.92 406.28)" id="hbICc-z6J0tOQCrDC5tc7" >
<path style="stroke: rgb(233,233,233); stroke-width: 0; stroke-dasharray: none; stroke-linecap: butt; stroke-dashoffset: 0; stroke-linejoin: miter; stroke-miterlimit: 4; fill: rgb(172,102,204); fill-rule: nonzero; opacity: 1;" transform=" translate(-12, -6)" d="M 0 0.00418 C 0 0.0018699999999999997 0.00187 0 0.00418 0 L 23.995820000000002 0 L 23.995820000000002 0 C 23.998130000000003 0 24.000000000000004 0.00187 24.000000000000004 0.00418 L 24.000000000000004 11.99582 L 24.000000000000004 11.99582 C 24.000000000000004 11.99813 23.998130000000003 12 23.995820000000002 12 L 0.004180000000001627 12 L 0.004180000000001627 12 C 0.0018700000000016269 12 1.627170620466245e-15 11.99813 1.627170620466245e-15 11.99582 z" stroke-linecap="round" />
</g>
<g transform="matrix(0.19 -0.98 0.98 0.19 28.07 404.24)" id="7Y4XLixZgWUO42qKu39kz" >
<path style="stroke: rgb(233,233,233); stroke-width: 0; stroke-dasharray: none; stroke-linecap: butt; stroke-dashoffset: 0; stroke-linejoin: miter; stroke-miterlimit: 4; fill: rgb(172,102,204); fill-rule: nonzero; opacity: 1;" transform=" translate(-12, -6)" d="M 0 0.00418 C 0 0.0018699999999999997 0.00187 0 0.00418 0 L 23.995820000000002 0 L 23.995820000000002 0 C 23.998130000000003 0 24.000000000000004 0.00187 24.000000000000004 0.00418 L 24.000000000000004 11.99582 L 24.000000000000004 11.99582 C 24.000000000000004 11.99813 23.998130000000003 12 23.995820000000002 12 L 0.004180000000001627 12 L 0.004180000000001627 12 C 0.0018700000000016269 12 1.627170620466245e-15 11.99813 1.627170620466245e-15 11.99582 z" stroke-linecap="round" />
</g>
<g transform="matrix(0.59 -0.81 0.81 0.59 17.38 392.02)" id="8HV1lWWeqzLqjwnGvFETZ" >
<path style="stroke: rgb(233,233,233); stroke-width: 0; stroke-dasharray: none; stroke-linecap: butt; stroke-dashoffset: 0; stroke-linejoin: miter; stroke-miterlimit: 4; fill: rgb(172,102,204); fill-rule: nonzero; opacity: 1;" transform=" translate(-12, -6)" d="M 0 0.00418 C 0 0.0018699999999999997 0.00187 0 0.00418 0 L 23.995820000000002 0 L 23.995820000000002 0 C 23.998130000000003 0 24.000000000000004 0.00187 24.000000000000004 0.00418 L 24.000000000000004 11.99582 L 24.000000000000004 11.99582 C 24.000000000000004 11.99813 23.998130000000003 12 23.995820000000002 12 L 0.004180000000001627 12 L 0.004180000000001627 12 C 0.0018700000000016269 12 1.627170620466245e-15 11.99813 1.627170620466245e-15 11.99582 z" stroke-linecap="round" />
</g>
<g transform="matrix(1 0 0 1 359.53 122.52)" id="uxGwx25CWTLdAdGpCveLX" >
<path style="stroke: rgb(233,233,233); stroke-width: 0; stroke-dasharray: none; stroke-linecap: butt; stroke-dashoffset: 0; stroke-linejoin: miter; stroke-miterlimit: 4; fill: rgb(233,233,233); fill-opacity: 0.53; fill-rule: nonzero; opacity: 1;" transform=" translate(-11.26, -11.26)" d="M 11.26126 0 C 17.47748 0 22.52252 5.04505 22.52252 11.26126 C 22.52252 17.47748 17.47747 22.52252 11.26126 22.52252 C 5.04504 22.52252 0 17.47747 0 11.26126 C 0 5.04504 5.04505 0 11.26126 0 z" stroke-linecap="round" />
</g>
</svg>