<?xml version="1.0" encoding="UTF-8" standalone="no" ?>
<!DOCTYPE svg PUBLIC "-//W3C//DTD SVG 1.1//EN" "http://www.w3.org/Graphics/SVG/1.1/DTD/svg11.dtd">
<svg xmlns="http://www.w3.org/2000/svg" xmlns:xlink="http://www.w3.org/1999/xlink" version="1.1" width="192" height="192" viewBox="0 0 192 192" xml:space="preserve">
<desc>Created with Fabric.js 4.6.0</desc>
<defs>
</defs>
<g transform="matrix(1.16 0 0 1.16 96.08 95.92)" id="KB8EB6o9IM25OEQ8EF2It"  >
<path style="stroke: rgb(18,88,161); stroke-width: 0; stroke-dasharray: none; stroke-linecap: butt; stroke-dashoffset: 0; stroke-linejoin: miter; stroke-miterlimit: 4; fill: rgb(88,0,128); fill-rule: nonzero; opacity: 1;" vector-effect="non-scaling-stroke"  transform=" translate(0, 0)" d="M -82.55788 -82.55788 L 82.55788 -82.55788 L 82.55788 82.55788 L -82.55788 82.55788 z" stroke-linecap="round" />
</g>
<g transform="matrix(0.77 0 0 0.69 64.42 109.81)" id="puf4SGdHkWRWKtkbT_hHv"  >
<path style="stroke: rgb(255,255,255); stroke-width: 5; stroke-dasharray: none; stroke-linecap: butt; stroke-dashoffset: 0; stroke-linejoin: miter; stroke-miterlimit: 4; fill: rgb(255,255,255); fill-opacity: 0; fill-rule: nonzero; opacity: 1;" vector-effect="non-scaling-stroke"  transform=" translate(0, 0)" d="M -28.47189 -60.64829 C 26.14332 -60.436600000000006 28.471880000000002 60.64829 28.471880000000002 60.64829" stroke-linecap="round" />
</g>
<g transform="matrix(0.3 0 0 0.09 95.79 151.99)" id="ENaD1WQ2rlLrqH5oEvNlq"  >
<path style="stroke: rgb(255,255,255); stroke-width: 5; stroke-dasharray: none; stroke-linecap: butt; stroke-dashoffset: 0; stroke-linejoin: miter; stroke-miterlimit: 4; fill: rgb(49,19,50); fill-opacity: 0; fill-rule: nonzero; opacity: 1;" vector-effect="non-scaling-stroke"  transform=" translate(0, 0)" d="M 0 -31.54135 C 17.41082 -31.54135 31.54135 -17.41083 31.54135 0 C 31.54135 17.41082 17.41083 31.54135 0 31.54135 C -17.41082 31.54135 -31.54135 17.41083 -31.54135 0 C -31.54135 -17.41082 -17.41083 -31.54135 0 -31.54135 z" stroke-linecap="round" />
</g>
<g transform="matrix(1.68 0 0 0.49 96 67.7)" id="j1lZTpdjVNTZBw_agcrP4"  >
<path style="stroke: rgb(255,255,255); stroke-width: 5; stroke-dasharray: none; stroke-linecap: butt; stroke-dashoffset: 0; stroke-linejoin: miter; stroke-miterlimit: 4; fill: rgb(49,19,50); fill-opacity: 0; fill-rule: nonzero; opacity: 1;" vector-effect="non-scaling-stroke"  transform=" translate(0, 0)" d="M 0 -31.54135 C 17.41082 -31.54135 31.54135 -17.41083 31.54135 0 C 31.54135 17.41082 17.41083 31.54135 0 31.54135 C -17.41082 31.54135 -31.54135 17.41083 -31.54135 0 C -31.54135 -17.41082 -17.41083 -31.54135 0 -31.54135 z" stroke-linecap="round" />
</g>
<g transform="matrix(-0.77 0 0 0.69 127.03 109.99)" id="k4kAxSmS1aGBfbKuEOYW4"  >
<path style="stroke: rgb(255,255,255); stroke-width: 5; stroke-dasharray: none; stroke-linecap: butt; stroke-dashoffset: 0; stroke-linejoin: miter; stroke-miterlimit: 4; fill: rgb(255,255,255); fill-opacity: 0; fill-rule: nonzero; opacity: 1;" vector-effect="non-scaling-stroke"  transform=" translate(0, 0)" d="M -28.47189 -60.64829 C 26.14332 -60.436600000000006 28.471880000000002 60.64829 28.471880000000002 60.64829" stroke-linecap="round" />
</g>
<g transform="matrix(0.54 0 0 0.16 95.71 104.53)" id="BV1O1pbYGkm2D2T5jcri1"  >
<path style="stroke: rgb(255,255,255); stroke-width: 5; stroke-dasharray: none; stroke-linecap: butt; stroke-dashoffset: 0; stroke-linejoin: miter; stroke-miterlimit: 4; fill: rgb(49,19,50); fill-opacity: 0; fill-rule: nonzero; opacity: 1;" vector-effect="non-scaling-stroke"  transform=" translate(0, 0)" d="M 0 -31.54135 C 17.41082 -31.54135 31.54135 -17.41083 31.54135 0 C 31.54135 17.41082 17.41083 31.54135 0 31.54135 C -17.41082 31.54135 -31.54135 17.41083 -31.54135 0 C -31.54135 -17.41082 -17.41083 -31.54135 0 -31.54135 z" stroke-linecap="round" />
</g>
<g transform="matrix(-0.38 0 0 0.84 106.66 104.83)" id="daiLiUnSVETodRp70koDV"  >
<path style="stroke: rgb(255,255,255); stroke-width: 5; stroke-dasharray: none; stroke-linecap: butt; stroke-dashoffset: 0; stroke-linejoin: miter; stroke-miterlimit: 4; fill: rgb(255,255,255); fill-opacity: 0; fill-rule: nonzero; opacity: 1;" vector-effect="non-scaling-stroke"  transform=" translate(0, 0)" d="M -28.47189 -60.64829 C 26.14332 -60.436600000000006 28.471880000000002 60.64829 28.471880000000002 60.64829" stroke-linecap="round" />
</g>
<g transform="matrix(0.41 0 0 0.83 84.53 104.34)" id="bbIea4p4dpFMa1LZmQ2D8"  >
<path style="stroke: rgb(255,255,255); stroke-width: 5; stroke-dasharray: none; stroke-linecap: butt; stroke-dashoffset: 0; stroke-linejoin: miter; stroke-miterlimit: 4; fill: rgb(255,255,255); fill-opacity: 0; fill-rule: nonzero; opacity: 1;" vector-effect="non-scaling-stroke"  transform=" translate(0, 0)" d="M -28.47189 -60.64829 C 26.14332 -60.436600000000006 28.471880000000002 60.64829 28.471880000000002 60.64829" stroke-linecap="round" />
</g>
</svg>