<?xml version="1.0" encoding="UTF-8" standalone="no" ?>
<!DOCTYPE svg PUBLIC "-//W3C//DTD SVG 1.1//EN" "http://www.w3.org/Graphics/SVG/1.1/DTD/svg11.dtd">
<svg xmlns="http://www.w3.org/2000/svg" xmlns:xlink="http://www.w3.org/1999/xlink" version="1.1" width="192" height="192" viewBox="0 0 192 192" xml:space="preserve">
<desc>Created with Fabric.js 4.6.0</desc>
<defs>
</defs>
<g transform="matrix(1.12 0 0 1.01 50.55 104.36)" id="puf4SGdHkWRWKtkbT_hHv"  >
<path style="stroke: rgb(255,255,255); stroke-width: 2; stroke-dasharray: none; stroke-linecap: butt; stroke-dashoffset: 0; stroke-linejoin: miter; stroke-miterlimit: 4; fill: rgb(255,255,255); fill-opacity: 0; fill-rule: nonzero; opacity: 1;" vector-effect="non-scaling-stroke"  transform=" translate(0, 0)" d="M -28.47189 -60.64829 C 26.14332 -60.436600000000006 28.471880000000002 60.64829 28.471880000000002 60.64829" stroke-linecap="round" />
</g>
<g transform="matrix(0.43 0 0 0.13 96.17 165.7)" id="ENaD1WQ2rlLrqH5oEvNlq"  >
<path style="stroke: rgb(255,255,255); stroke-width: 2; stroke-dasharray: none; stroke-linecap: butt; stroke-dashoffset: 0; stroke-linejoin: miter; stroke-miterlimit: 4; fill: rgb(49,19,50); fill-opacity: 0; fill-rule: nonzero; opacity: 1;" vector-effect="non-scaling-stroke"  transform=" translate(0, 0)" d="M 0 -31.54135 C 17.41082 -31.54135 31.54135 -17.41083 31.54135 0 C 31.54135 17.41082 17.41083 31.54135 0 31.54135 C -17.41082 31.54135 -31.54135 17.41083 -31.54135 0 C -31.54135 -17.41082 -17.41083 -31.54135 0 -31.54135 z" stroke-linecap="round" />
</g>
<g transform="matrix(2.44 0 0 0.71 96.48 43.1)" id="j1lZTpdjVNTZBw_agcrP4"  >
<path style="stroke: rgb(255,255,255); stroke-width: 2; stroke-dasharray: none; stroke-linecap: butt; stroke-dashoffset: 0; stroke-linejoin: miter; stroke-miterlimit: 4; fill: rgb(49,19,50); fill-opacity: 0; fill-rule: nonzero; opacity: 1;" vector-effect="non-scaling-stroke"  transform=" translate(0, 0)" d="M 0 -31.54135 C 17.41082 -31.54135 31.54135 -17.41083 31.54135 0 C 31.54135 17.41082 17.41083 31.54135 0 31.54135 C -17.41082 31.54135 -31.54135 17.41083 -31.54135 0 C -31.54135 -17.41082 -17.41083 -31.54135 0 -31.54135 z" stroke-linecap="round" />
</g>
<g transform="matrix(-1.12 0 0 1.01 141.61 104.61)" id="k4kAxSmS1aGBfbKuEOYW4"  >
<path style="stroke: rgb(255,255,255); stroke-width: 2; stroke-dasharray: none; stroke-linecap: butt; stroke-dashoffset: 0; stroke-linejoin: miter; stroke-miterlimit: 4; fill: rgb(255,255,255); fill-opacity: 0; fill-rule: nonzero; opacity: 1;" vector-effect="non-scaling-stroke"  transform=" translate(0, 0)" d="M -28.47189 -60.64829 C 26.14332 -60.436600000000006 28.471880000000002 60.64829 28.471880000000002 60.64829" stroke-linecap="round" />
</g>
<g transform="matrix(0.79 0 0 0.23 96.06 96.67)" id="BV1O1pbYGkm2D2T5jcri1"  >
<path style="stroke: rgb(255,255,255); stroke-width: 2; stroke-dasharray: none; stroke-linecap: butt; stroke-dashoffset: 0; stroke-linejoin: miter; stroke-miterlimit: 4; fill: rgb(49,19,50); fill-opacity: 0; fill-rule: nonzero; opacity: 1;" vector-effect="non-scaling-stroke"  transform=" translate(0, 0)" d="M 0 -31.54135 C 17.41082 -31.54135 31.54135 -17.41083 31.54135 0 C 31.54135 17.41082 17.41083 31.54135 0 31.54135 C -17.41082 31.54135 -31.54135 17.41083 -31.54135 0 C -31.54135 -17.41082 -17.41083 -31.54135 0 -31.54135 z" stroke-linecap="round" />
</g>
<g transform="matrix(-0.55 0 0 1.22 112.03 96.89)" id="daiLiUnSVETodRp70koDV"  >
<path style="stroke: rgb(255,255,255); stroke-width: 2; stroke-dasharray: none; stroke-linecap: butt; stroke-dashoffset: 0; stroke-linejoin: miter; stroke-miterlimit: 4; fill: rgb(255,255,255); fill-opacity: 0; fill-rule: nonzero; opacity: 1;" vector-effect="non-scaling-stroke"  transform=" translate(0, 0)" d="M -28.47189 -60.64829 C 26.14332 -60.436600000000006 28.471880000000002 60.64829 28.471880000000002 60.64829" stroke-linecap="round" />
</g>
<g transform="matrix(0.6 0 0 1.21 79.79 96.4)" id="bbIea4p4dpFMa1LZmQ2D8"  >
<path style="stroke: rgb(255,255,255); stroke-width: 2; stroke-dasharray: none; stroke-linecap: butt; stroke-dashoffset: 0; stroke-linejoin: miter; stroke-miterlimit: 4; fill: rgb(255,255,255); fill-opacity: 0; fill-rule: nonzero; opacity: 1;" vector-effect="non-scaling-stroke"  transform=" translate(0, 0)" d="M -28.47189 -60.64829 C 26.14332 -60.436600000000006 28.471880000000002 60.64829 28.471880000000002 60.64829" stroke-linecap="round" />
</g>
</svg>