<?xml version="1.0" encoding="UTF-8" standalone="no" ?>
<!DOCTYPE svg PUBLIC "-//W3C//DTD SVG 1.1//EN" "http://www.w3.org/Graphics/SVG/1.1/DTD/svg11.dtd">
<svg xmlns="http://www.w3.org/2000/svg" xmlns:xlink="http://www.w3.org/1999/xlink" version="1.1" width="192" height="192" viewBox="0 0 192 192" xml:space="preserve">
<desc>Created with Fabric.js 4.6.0</desc>
<defs>
</defs>
<g transform="matrix(0.87 0 0 0.87 51.13 140.87)" id="F5-KN3HXZW3f6eP-Z4ahe"  >
<path style="stroke: rgb(30,14,70); stroke-width: 0; stroke-dasharray: none; stroke-linecap: butt; stroke-dashoffset: 0; stroke-linejoin: miter; stroke-miterlimit: 4; fill: rgb(255,255,255); fill-rule: nonzero; opacity: 1;" vector-effect="non-scaling-stroke"  transform=" translate(0, 0)" d="M 0 -31.99997 C 17.664 -31.99997 32 -17.663980000000002 32 0 C 32 17.66398 17.664 31.99997 0 31.99997 C -17.664 31.99997 -32 17.663980000000002 -32 0 C -32 -17.66398 -17.664 -31.99997 0 -31.99997 z" stroke-linecap="round" />
</g>
<g transform="matrix(0.87 0 0 0.87 141.16 50.84)" id="dJhryY3psdPlHbSXPmvZR"  >
<path style="stroke: rgb(30,14,70); stroke-width: 0; stroke-dasharray: none; stroke-linecap: butt; stroke-dashoffset: 0; stroke-linejoin: miter; stroke-miterlimit: 4; fill: rgb(255,255,255); fill-rule: nonzero; opacity: 1;" vector-effect="non-scaling-stroke"  transform=" translate(0, 0)" d="M 0 -31.99997 C 17.664 -31.99997 32 -17.663980000000002 32 0 C 32 17.66398 17.664 31.99997 0 31.99997 C -17.664 31.99997 -32 17.663980000000002 -32 0 C -32 -17.66398 -17.664 -31.99997 0 -31.99997 z" stroke-linecap="round" />
</g>
<g transform="matrix(1 0 0 1 96 96)" id="UZruMKWOP9u-KDhloG7d0"  >
<path style="stroke: rgb(255,255,255); stroke-width: 8; stroke-dasharray: none; stroke-linecap: butt; stroke-dashoffset: 0; stroke-linejoin: miter; stroke-miterlimit: 4; fill: rgb(255,255,255); fill-opacity: 0; fill-rule: nonzero; opacity: 1;"  transform=" translate(-68, -69)" d="M 68 0 C 105.536 0 136 30.912 136 69 C 136 107.088 105.536 138 68 138 C 30.464 138 0 107.088 0 69 C 0 30.912 30.464 0 68 0 z" stroke-linecap="round" />
</g>
</svg>