<?xml version="1.0" encoding="UTF-8" standalone="no" ?>
<!DOCTYPE svg PUBLIC "-//W3C//DTD SVG 1.1//EN" "http://www.w3.org/Graphics/SVG/1.1/DTD/svg11.dtd">
<svg xmlns="http://www.w3.org/2000/svg" xmlns:xlink="http://www.w3.org/1999/xlink" version="1.1" width="192" height="192" viewBox="0 0 192 192" xml:space="preserve">
<desc>Created with Fabric.js 4.6.0</desc>
<defs>
</defs>
<g transform="matrix(1.38 0 0 1.38 159.43 95.62)" id="B0nbkHUaeb-VLBlzix8zJ"  >
<path style="stroke: rgb(30,14,70); stroke-width: 0; stroke-dasharray: none; stroke-linecap: butt; stroke-dashoffset: 0; stroke-linejoin: miter; stroke-miterlimit: 4; fill: rgb(255,255,255); fill-rule: nonzero; opacity: 1;" vector-effect="non-scaling-stroke"  transform=" translate(0, 0)" d="M 0 -11.99999 C 6.624 -11.99999 12 -6.6240000000000006 12 0 C 12 6.62399 6.624 11.99999 0 11.99999 C -6.624 11.99999 -12 6.6240000000000006 -12 0 C -12 -6.62399 -6.624 -11.99999 0 -11.99999 z" stroke-linecap="round" />
</g>
<g transform="matrix(1.38 0 0 1.38 45.45 142.57)" id="9m4UV6iN4ot_mjPZ9_kUM"  >
<path style="stroke: rgb(30,14,70); stroke-width: 0; stroke-dasharray: none; stroke-linecap: butt; stroke-dashoffset: 0; stroke-linejoin: miter; stroke-miterlimit: 4; fill: rgb(255,255,255); fill-rule: nonzero; opacity: 1;" vector-effect="non-scaling-stroke"  transform=" translate(0, 0)" d="M 0 -11.99999 C 6.624 -11.99999 12 -6.6240000000000006 12 0 C 12 6.62399 6.624 11.99999 0 11.99999 C -6.624 11.99999 -12 6.6240000000000006 -12 0 C -12 -6.62399 -6.624 -11.99999 0 -11.99999 z" stroke-linecap="round" />
</g>
<g transform="matrix(1.38 0 0 1.38 91.81 95.62)" id="F5-KN3HXZW3f6eP-Z4ahe"  >
<path style="stroke: rgb(30,14,70); stroke-width: 0; stroke-dasharray: none; stroke-linecap: butt; stroke-dashoffset: 0; stroke-linejoin: miter; stroke-miterlimit: 4; fill: rgb(255,255,255); fill-rule: nonzero; opacity: 1;" vector-effect="non-scaling-stroke"  transform=" translate(0, 0)" d="M 0 -23.99998 C 13.248 -23.99998 24 -13.247990000000001 24 0 C 24 13.24799 13.248 23.99998 0 23.99998 C -13.248 23.99998 -24 13.247990000000001 -24 0 C -24 -13.24799 -13.248 -23.99998 0 -23.99998 z" stroke-linecap="round" />
</g>
<g transform="matrix(1 0 0 1 91.81 96)" id="yVn97YSBL05cFKzFEQycP"  >
<path style="stroke: rgb(255,255,255); stroke-width: 8; stroke-dasharray: none; stroke-linecap: butt; stroke-dashoffset: 0; stroke-linejoin: miter; stroke-miterlimit: 4; fill: rgb(255,255,255); fill-opacity: 0; fill-rule: nonzero; opacity: 1;"  transform=" translate(-69, -68.82)" d="M 69 0 C 107.088 0 138 30.83158 138 68.82048 C 138 106.80938 107.088 137.64096 69 137.64096 C 30.912 137.64096 0 106.80938 0 68.82048 C 0 30.831580000000002 30.912 0 69 0 z" stroke-linecap="round" />
</g>
</svg>