<?xml version="1.0" encoding="UTF-8" standalone="no" ?>
<!DOCTYPE svg PUBLIC "-//W3C//DTD SVG 1.1//EN" "http://www.w3.org/Graphics/SVG/1.1/DTD/svg11.dtd">
<svg xmlns="http://www.w3.org/2000/svg" xmlns:xlink="http://www.w3.org/1999/xlink" version="1.1" width="192" height="192" viewBox="0 0 192 192" xml:space="preserve">
<desc>Created with Fabric.js 4.6.0</desc>
<defs>
</defs>
<g transform="matrix(1 0 0 1 96 96)" id="F5-KN3HXZW3f6eP-Z4ahe"  >
<path style="stroke: rgb(30,14,70); stroke-width: 0; stroke-dasharray: none; stroke-linecap: butt; stroke-dashoffset: 0; stroke-linejoin: miter; stroke-miterlimit: 4; fill: rgb(255,255,255); fill-rule: nonzero; opacity: 1;" vector-effect="non-scaling-stroke"  transform=" translate(-24, -24)" d="M 24 0 C 37.248 0 48 10.75199 48 23.99998 C 48 37.24797 37.248 47.99996 24 47.99996 C 10.752 47.99996 0 37.24797 0 23.99998 C 0 10.751990000000001 10.752 0 24 0 z" stroke-linecap="round" />
</g>
<g transform="matrix(1 0 0 1 41 41)" id="Xs7znRg7CrvDKQ-HSrQZL"  >
<path style="stroke: rgb(30,14,70); stroke-width: 0; stroke-dasharray: none; stroke-linecap: butt; stroke-dashoffset: 0; stroke-linejoin: miter; stroke-miterlimit: 4; fill: rgb(255,255,255); fill-rule: nonzero; opacity: 1;" vector-effect="non-scaling-stroke"  transform=" translate(-12, -12)" d="M 12 0 C 18.624 0 24 5.37599 24 11.99999 C 24 18.62398 18.624 23.99998 12 23.99998 C 5.376 23.99998 0 18.62399 0 11.99999 C 0 5.376 5.376 0 12 0 z" stroke-linecap="round" />
</g>
<g transform="matrix(1 0 0 1 144.54 96)" id="B0nbkHUaeb-VLBlzix8zJ"  >
<path style="stroke: rgb(30,14,70); stroke-width: 0; stroke-dasharray: none; stroke-linecap: butt; stroke-dashoffset: 0; stroke-linejoin: miter; stroke-miterlimit: 4; fill: rgb(255,255,255); fill-rule: nonzero; opacity: 1;" vector-effect="non-scaling-stroke"  transform=" translate(-12, -12)" d="M 12 0 C 18.624 0 24 5.37599 24 11.99999 C 24 18.62398 18.624 23.99998 12 23.99998 C 5.376 23.99998 0 18.62399 0 11.99999 C 0 5.376 5.376 0 12 0 z" stroke-linecap="round" />
</g>
<g transform="matrix(1 0 0 1 62 130)" id="9m4UV6iN4ot_mjPZ9_kUM"  >
<path style="stroke: rgb(30,14,70); stroke-width: 0; stroke-dasharray: none; stroke-linecap: butt; stroke-dashoffset: 0; stroke-linejoin: miter; stroke-miterlimit: 4; fill: rgb(255,255,255); fill-rule: nonzero; opacity: 1;" vector-effect="non-scaling-stroke"  transform=" translate(-12, -12)" d="M 12 0 C 18.624 0 24 5.37599 24 11.99999 C 24 18.62398 18.624 23.99998 12 23.99998 C 5.376 23.99998 0 18.62399 0 11.99999 C 0 5.376 5.376 0 12 0 z" stroke-linecap="round" />
</g>
<g transform="matrix(1 0 0 1 96 95.92)" id="GKHRPVlbDzTP9XZUdVbqA"  >
<path style="stroke: rgb(255,255,255); stroke-width: 8; stroke-dasharray: none; stroke-linecap: butt; stroke-dashoffset: 0; stroke-linejoin: miter; stroke-miterlimit: 4; fill: rgb(255,255,255); fill-opacity: 0; fill-rule: nonzero; opacity: 1;" transform=" translate(-78, -78)" d="M 78 0 C 121.056 0 156 34.944 156 78 C 156 121.056 121.056 156 78 156 C 34.944 156 0 121.056 0 78 C 0 34.944 34.944 0 78 0 z" stroke-linecap="round" />
</g>
<g transform="matrix(1 0 0 1 96.08 95.86)" id="yYQeEjQqhXw7PoPbkG8Mc"  >
<path style="stroke: rgb(255,255,255); stroke-width: 8; stroke-dasharray: none; stroke-linecap: butt; stroke-dashoffset: 0; stroke-linejoin: miter; stroke-miterlimit: 4; fill: rgb(255,255,255); fill-opacity: 0; fill-rule: nonzero; opacity: 1;" transform=" translate(-50, -50)" d="M 50 0 C 77.6 0 100 22.4 100 50 C 100 77.6 77.6 100 50 100 C 22.4 100 0 77.6 0 50 C 0 22.4 22.4 0 50 0 z" stroke-linecap="round" />
</g>
</svg>